<svg data-name="Capa 2" xmlns="http://www.w3.org/2000/svg" fill="none" viewBox="0 0 135.87 93.52"><path d="M119.1 0c9.18 0 16.76 7.59 16.76 16.76s-7.59 16.76-16.76 16.76-16.76-7.59-16.76-16.76S109.93 0 119.1 0Zm0 60c9.18 0 16.76 7.59 16.76 16.76s-7.59 16.76-16.76 16.76-16.76-7.59-16.76-16.76S109.93 60 119.1 60ZM3.12 2.82h20.22c1.73 0 3.12 1.4 3.12 3.12v47.17c0 10.94 6.88 16.06 15.35 16.06 9.71 0 16.41-5.65 16.41-18.17V5.95c0-1.73 1.4-3.12 3.12-3.12h20.22c1.73 0 3.12 1.4 3.12 3.12v81.98c0 1.73-1.4 3.12-3.12 3.12H61.34c-1.73 0-3.12-1.4-3.12-3.12v-5.17c-4.76 6.53-13.59 10.76-25.23 10.76C15.18 93.52 0 80.82 0 57V5.95c0-1.73 1.4-3.12 3.12-3.12Z" data-name="Capa 1"/>
<style>
        path { fill: #000; }
        @media (prefers-color-scheme: dark) {
            path { fill: #FFF; }
        }
    </style>
</svg>