<?xml version="1.0" encoding="utf-8"?>
<!-- Generator: Adobe Illustrator 28.1.0, SVG Export Plug-In . SVG Version: 6.00 Build 0)  -->
<svg version="1.1" id="Capa_1" xmlns="http://www.w3.org/2000/svg" xmlns:xlink="http://www.w3.org/1999/xlink" x="0px" y="0px"
	 viewBox="0 0 460 460" style="enable-background:new 0 0 460 460;" xml:space="preserve">
<style type="text/css">
	.st0{fill:#1D1D1B;}
</style>
<g id="Capa_2_00000054246397421203919170000017821662697875502766_">
	<path class="st0" d="M189,184.2c2.3,0.9,4.6,1.6,7.1,0.6c1.5-0.6,3-1,4.2-2.3c0.4-0.5,0.5-1.1,0.8-1.6c0.8-1.1,1.2-2.4,1.1-3.8
		c-0.1-0.9-0.4-1.7,0.1-2.5c-0.3-2.6-0.8-4.8-3.4-5.9c-0.4-0.2-0.7-0.4-1-0.7s-0.7-0.5-1.1-0.5c-0.8,0.1-1.5-0.2-2.3-0.5
		c-0.6-0.2-1.3-0.4-2-0.2c-1.8,0.5-3.8,0.7-4.8,2.7c-0.1,0.2-0.3,0.4-0.5,0.6c-1.7,1.5-2,3.5-1.9,5.5c0,1.7,0.5,3.5,1.2,5.1
		C186.8,182.4,187.6,183.7,189,184.2L189,184.2z M274.5,173.8c-0.7-1.8-1.3-3.7-3.5-4.3c-0.2-0.1-0.5-0.2-0.7-0.4
		c-0.5-0.5-1-0.7-1.7-0.7c-0.6-0.1-1.1-0.2-1.7-0.3c-2.7-0.6-5.1-0.2-6.9,2.3c-0.2,0.3-0.5,0.5-0.8,0.8c-1.7,1.5-2,3.6-1.9,5.7
		c0.1,1.5,0.6,2.9,1,4.4c0.5,1.6,1.4,3,2.9,3.7c2.2,1.1,4.6,1.5,7.1,0.8c2.6-0.8,4.5-2.2,5.5-4.7c0.3-0.7,0.6-1.4,0.6-2.1
		c0.1-1.3-0.4-2.6,0-3.6C274.6,174.6,274.7,174.2,274.5,173.8L274.5,173.8z M245.1,249.1c-1,0-2-0.2-2.9,0c-1,0.2-2.1,0.1-3.1,0.1
		c-1.7-0.1-3.4,0.1-5.1-0.1c-1-0.1-2-0.5-3.1-0.3c-1.5,0.2-3.1,0.1-4.6,0.2c-2.4,0.3-4.7,0.2-7.1,0.2c-0.2,0-0.4,0.1-0.6,0
		c-1.5-0.5-3.1-0.3-4.6-0.1c-3.1,0.4-4.1,3.2-3.4,5.5c0.5,1.5,1.9,2.7,3.7,2.8c0.7,0.1,1.3,0.2,1.9,0.6c0.3,0.2,0.6,0.3,0.9,0.3
		c1.8-0.3,3.4,0.8,5.3,0.6c1.6-0.2,3.3,0.6,4.9-0.1c1.5-0.6,3.1-0.7,4.4-0.2c1.8,0.7,3.5,0.5,5.2,0.3c1.1-0.1,2.1,0,3.3-0.3
		c1.7-0.4,3.4-0.6,5.1-1.1c0.9-0.2,1.9-0.5,2.5-1.2c0.6-0.8,1.9-1.3,1.6-2.5C249.3,250.8,247.5,249.2,245.1,249.1L245.1,249.1z"/>
	<path class="st0" d="M459.2,334.8l-0.8-1.7l-1.3-1.3l-0.8-1.7l-1-1.5l-1.4-1.2l-1.2-1.4l-1.4-1.2l-1.7-0.8l-1.5-1l-1.3-1.5
		l-1.7-0.9l-2-0.2l-1.7-0.8l-1.4-1.5l-1.7-0.7l-1.8-0.7l-1.7-0.8l-1.7-0.7l-1.7-0.9h-2l-1.7-1l-1.7-0.7l-1.8-0.5l-1.8-0.5l-1.8-0.4
		l-1.8-0.4l-1.6-1l-1.8-0.3l-1.9-0.3l-1.7-0.8l-1.8-0.3l-1.6-1.1l-1.6-0.9h-1.9l-1.7-0.8l-1.7-0.6l-1.8-0.4l-1.8-0.5l-1.6-1
		l-1.7-0.7l-1.7-0.7L391,301h-1.9c-8.4-3.6-16.8-7.1-25.5-10.1c-4-1.4-8-2.6-12-3.8c-2.6-0.8-4.9-2.4-7.5-2.5l-1.6-1l-1.8-0.5
		l-1.5-1.2l-1.9-0.3l-1.7-0.8l-1.6-1h-2l-1.3-1.5l-1.9-0.2l-1.4-1.3l-2-0.2l-1.4-1.3l-1.8-0.5l-1.8-0.6l-1.5-1l-1.4-1.2l-1.6-0.9
		l-1.9-0.4l-1.2-1.6l-2-0.3l-1.6-1l-1.6-0.9l-0.3-0.3c-0.1-0.3-0.1-0.6,0.2-0.7c1.2-0.5,1.3-1.7,1.7-2.7c0.7-1.7,1-3.5,1.8-5.1
		c0.7-1.3,1-2.8,1.1-4.2c0.1-1.1,0.3-2.1,0.7-3.1c0.1-0.3,0.2-0.6,0.2-0.9c0-1.1,0.3-2.2,0.5-3.2c0.3-1.7,1.2-3.3,0.7-5.1
		c-0.2-0.9,0-1.7,0.6-2.4c0.3-0.4,0.3-0.6,0.3-1.1c0-0.8-0.4-1.7-0.3-2.5c0.2-1,0.5-2,1-2.9c0.4-0.7,0.5-1.3,0.6-2
		c0.1-1.1-0.1-2.3,0.3-3.4c0.9-2,1.2-4.3,1.2-6.4c0-2.4,0.7-4.8,0.2-7.2c-0.1-0.3,0.2-0.5,0.3-0.7c0.4-0.9,0.6-1.8,0.5-2.9
		c-0.1-1.3-0.1-2.6,0.1-4c0.3-1.8,1.1-2.7,2.7-3.2c1.5-0.5,2.9-1.4,4.6-1.2c0.4,0.1,0.7-0.2,0.9-0.5c0.9-0.7,1.9-1.4,2.9-2
		c0.8-0.6,1.5-1.1,2.1-1.9c0.2-0.2,0.5-0.2,0.6-0.4c0.6-0.9,1.8-1.1,2.2-2.1c0.3-0.6,0.8-1.1,1.1-1.6c0.7-1.4,1.5-2.7,2.4-4.1
		c0.1-0.1,0.1-0.2,0.1-0.3c0-1.1,0.4-2.1,0.4-3.2c0-0.7-0.1-1.5,0.7-1.9c0.6-0.4,0.6-0.8,0.3-1.3s-0.5-1.1,0-1.6c1-0.9,0.8-2,0.5-3
		c-0.1-0.5-0.3-1,0-1.5c0.4-0.9,0.2-1.7-0.1-2.6c-0.4-1-1.1-2-0.5-3.1c-0.8-0.7-0.7-1.7-0.8-2.6c0-0.1-0.2-0.2-0.3-0.3
		c-0.8-0.5-1.2-1.2-1.4-2.1c-0.4-1.3-1.3-2.2-2.2-3.1c-1.3-1.3-2.6-2.7-4.3-3.5c-0.3-0.1-0.6-0.3-0.7-0.6c-0.5-1.2-1.6-1.5-2.6-2.1
		c-2.2-1.3-4.6-1.8-7.1-2c-1.1-0.1-2.4-0.1-3-1.4c-0.2-0.4-0.3-0.8-0.3-1.2c0-0.9,0.1-1.9-0.2-2.8c-0.5-1.8-0.4-3.7-0.9-5.6
		c-0.1-0.4,0.4-0.9,0.1-1.2c-0.7-0.7-0.5-1.6-0.5-2.4c-0.2-1.9,0.3-4-0.6-5.9c-0.1-0.1-0.1-0.3-0.1-0.5c0-1-0.3-1.9-0.5-2.8
		c-0.2-1-0.8-2-1.7-2.7c-0.2-0.1-0.6-0.1-0.5-0.5c0.2-1.1-0.7-1.8-0.7-2.8c0-0.6-0.4-1.1-0.8-1.6c-0.6-0.8-1.3-1.5-0.9-2.8
		c0.2-0.6-0.1-1.4-0.7-1.8c-0.7-0.5-0.9-1-0.8-1.8s-0.1-1.6-1.1-1.7c-0.4-0.1-0.6-0.4-0.5-0.8c0.1-0.6-0.3-0.9-0.6-1.4
		c-1-1.3-2.4-2.4-2.5-4.3c0-0.4-0.3-0.8-0.7-1c-0.4-0.2-0.5-0.6-0.8-0.9c-1-1.4-1-3.2-2-4.6c-0.5-0.7-1-1.5-1.9-1.7
		s-1.3-0.6-1.4-1.6c-0.1-0.7-0.3-1.3-1.3-1.4c-0.6-0.1-1.1-0.8-1.1-1.5c0-1.4-0.9-2-2-2.5c-0.3-0.1-0.6-0.2-0.8-0.4
		c-1.7-1.4-3.4-2.8-5-4.4c-0.7-0.6-1.5-1-1.6-2.1c0-0.3-0.3-0.5-0.6-0.7c-1.7-1.4-4-2-5.6-3.5c-1.2-1.1-2.7-1.7-4.1-2.7
		c-0.9-0.6-1.7-1.5-2.6-2.1c-2.3-1.6-4.9-2.7-7.4-4.2c-0.4-0.3-0.9-0.6-1.4-0.7c-1.9-0.4-3.7-0.8-5.3-2c-0.3-0.2-0.6-0.3-0.9-0.2
		c-0.7,0.2-1.3-0.2-1.9-0.4c-0.9-0.4-1.8-0.7-2.7-0.8c-0.3,0-0.6,0-0.9-0.3c-0.8-0.7-1.8-0.9-2.8-1c-1-0.2-2.1-0.3-3.1-0.4
		c-0.7-0.1-1.4-0.2-1.6-1c-0.1-0.5-0.6-0.5-1-0.5c-1.2-0.1-2.4-0.1-3.6-0.3c-3.2-0.6-6.4-0.5-9.6-0.5c-1.8,0-3.6-0.1-5.4,0.1
		c-2.4,0.3-4.9,0.5-7.3,0.7c-0.3,0-0.7,0-0.8,0.4c-0.3,1.1-1.1,1.1-2,1.2c-1.6,0.3-3.3,0.1-4.7,0.9c-1.1,0.6-2.2,0.6-3.3,1.1
		c-1.8,0.8-3.8,0.7-5.4,2c-0.4,0.3-0.9,0.3-1.3,0.4c-1.4,0.5-2.9,0.7-4.3,1.4c-0.7,0.4-1.3,0.9-2,1.2c-1.6,0.9-3.3,1.6-4.9,2.7
		c-1.1,0.7-1.9,1.7-3,2.4c-0.9,0.6-2,0.8-2.7,1.6c-0.7,0.8-1.7,1-2.5,1.8c-0.3,0.4-1,0.6-1.6,0.9c-1.4,0.7-3,1.3-3.5,3.1
		c-0.1,0.3-0.4,0.7-0.7,0.8c-1.2,0.6-2,1.7-3,2.5c-1.3,1-2.5,2.3-4,3.1c-0.9,0.4-1.6,1.1-1.6,2.3c0,0.8-0.7,1.5-1.3,1.6
		c-1.1,0.1-1.2,0.8-1.3,1.4c-0.1,0.8-0.4,1.3-1.2,1.5c-2,0.4-2.4,2.2-3,3.6s-1,2.9-2.2,3.9c-0.3,0.2-0.6,0.5-0.6,0.9
		c0,1.7-1.4,2.7-2.2,4c-0.3,0.6-1.1,0.9-0.9,1.7c0.1,0.3-0.2,0.5-0.4,0.6c-1.1,0.2-1.3,1-1.1,1.9c0.1,0.8-0.2,1.3-0.8,1.7
		c-0.6,0.4-0.9,1.2-0.7,1.8c0.4,1.2-0.2,2-0.8,2.7s-1.1,1.5-1.3,2.4c-0.1,0.6-0.6,1.2-0.4,1.9c0.2,0.9-1.1,0.5-1.3,1.3
		c-0.2,0.7-1,1.4-1,2c0,1.2-0.8,2.2-0.6,3.5c0.1,0.3,0,0.8-0.2,1c-0.5,0.6-0.4,1.3-0.3,1.9c0.1,0.5,0.1,1,0,1.6
		c-0.2,1.2,0,2.3-0.4,3.5c-0.4,1.1-0.3,2.4-0.4,3.6c-0.1,2.1-0.8,4.1-0.6,6.1c0.1,0.9-0.9,1.3-1,2.1c-0.8-0.2-1.4,0.5-2.1,0.4
		c-1.4-0.2-2.6,0.3-3.8,0.5c-1.9,0.2-3.3,1.6-5.1,2.2c-0.4,0.1-0.6,0.9-0.9,1.4c-0.1,0.2-0.4,0.4-0.6,0.5c-1.5,0.8-2.6,2-3.8,3.2
		c-1.3,1.3-2.7,2.5-3.1,4.5c-0.1,0.3-0.4,0.6-0.6,0.9c-0.6,0.5-1.5,0.9-0.9,2c0.1,0.1-0.2,0.5-0.3,0.7c-0.3,0.3-0.5,0.6-0.3,1
		c0.3,0.7,0,1.3-0.3,1.9c-0.5,1.2-1.2,2.5-0.4,3.8c0.2,0.4-0.1,0.8-0.1,1.2c-0.2,0.9-0.6,2,0.3,2.8c0.6,0.6,0.7,1.1,0.3,1.8
		c-0.2,0.4-0.3,0.8,0.1,1.1c0.8,0.6,0.8,1.5,0.9,2.4c0.1,1.1,0,2.4,0.5,3.3c0.7,1.3,1.5,2.5,2.2,3.8c0,0.1,0.1,0.2,0.2,0.3
		c0.5,0.4,0.9,0.9,1.1,1.5c0.1,0.4,0.3,0.6,0.7,0.8c1.7,0.9,2.5,3,4.4,3.6c0.4,1.1,1.8,1.1,2.5,1.9c0.6,0.6,1.4,0.7,2.2,0.6
		c0.8-0.1,1.4,0.2,2.1,0.5c0.9,0.5,1.8,0.9,2.7,1.1c0.6,0.1,0.9,0.4,1.1,1c0.4,1.3,0.9,2.6,0.8,4.1c-0.1,0.9-0.3,1.8-0.1,2.6
		c0.3,1.6,0.6,3.1,0.7,4.7c0.1,1.4,0.3,2.8,0.3,4.2c0,2.3,0.5,4.5,1,6.7c0.2,0.8,0.3,1.5,0.4,2.3c0.2,1.4,0.2,2.8,0.9,4.2
		c0.5,1,1.2,2.2,0.6,3.7c-0.3,0.8-0.3,1.9,0.5,2.7c0.4,0.4,0.4,0.8,0.3,1.4c-0.2,1.1-0.2,2.3,0.2,3.4c0.6,1.5,0.8,3.1,1.1,4.7
		c0.3,2,1.2,3.9,1.1,5.9c0,0.1,0.1,0.3,0.2,0.4c0.4,1.4,1,2.8,1.6,4.2c0.6,1.3,0.9,2.8,1.3,4.2c0.2,0.6,0.3,1.5,1,1.7
		c0.9,0.3,0.7,0.7,0.6,1.4c-0.3,1.6,0.7,3.1,2.1,3.7c1,0.4,1,0.4,0.6,1.6c-0.2,0.7-0.3,1.1,0.1,1.4h-0.1l-1.5,1.1l-1.8,0.4l-1.5,1
		l-1.6,0.9l-1.6,0.8l-1.7,0.6l-1.6,0.8l-1.8,0.3l-1.5,1l-1.7,0.7l-1.6,1h-2l-1.5,1.1l-1.7,0.7l-1.9,0.3l-1.4,1.5
		c-13.7,6.5-27.1,12.5-41.5,17.3c-6.9,2.3-13.8,4.6-20.7,7.2c-3.1,1.2-5.4,2.4-8,4.2c-1.8,1.3-2.8,1.7-4.9,1.6l-1.7,0.7l-1.4,1.4
		l-1.9,0.3l-1.5,1.2l-1.6,0.9l-2,0.2l-1.3,1.5l-1.7,0.7l-1.8,0.6l-1.3,1.3l-1.4,1.2l-2,0.3l-1.6,0.9l-1,1.7l-1.7,0.8l-1.5,1.1
		l-1.5,1l-1.4,1.2l-1.4,1.2l-1.6,0.9l-1.4,1.2l-1.3,1.3l-1.3,1.3l-0.9,1.6l-1.1,1.5l-1.1,1.5l-1.4,1.2l-1.2,1.4l-0.9,1.6l-0.8,1.6
		l-0.9,1.6l-1,1.6l-0.9,1.6L8.7,356l-1,1.6l-1.1,1.5L6,360.8l-0.3,1.9L4,364.4l-0.6,1.7L3,367.9l-1.2,1.5l-0.7,1.7l-0.6,1.8L0,373.8
		V460h460V335.4L459.2,334.8L459.2,334.8z M323.1,191.7c-0.2,0-0.3-0.1-0.2-0.2c0-0.1,0.2-0.1,0.2-0.1c0.1,0,0.1,0.1,0.2,0.2
		C323.2,191.6,323.2,191.7,323.1,191.7z M320.2,184c-0.5-1.8-0.1-3.7-0.5-5.6c-0.1-0.6,0.3-0.9,0.8-1.1c0.4-0.1,0.8-0.3,1-0.7
		s-0.2-0.6-0.5-0.9c-0.4-0.4,0.2-0.7,0.1-1.2c-0.3-1.1-0.5-2.2-0.4-3.3c0-0.3-0.2-0.6,0.1-0.9c0.2-0.2,0.2-0.5-0.1-0.7
		c-1.3-0.8-0.7-2.1-0.8-3.4c0.7,0.6,0.3,1.6,1.2,1.8c0.4-0.8,0.7-1.7,0.2-2.6c0.8-0.6,1.6-0.2,2.4,0c1.7,0.5,2.8,1.8,4,3
		c0.3,0.3,0.6,0.7,1,1c0.9,0.6,2.3,2.7,2.4,3.8c0,0.6,0.2,1.1,0.4,1.6c0.5,1.5,0.3,3.1,0.7,4.6c-0.9,1.6-0.7,3.8-2.1,5.2
		c-0.3,0.3-0.4,0.6-0.5,1c-0.4,2.7-2.5,3.4-4.7,4.1c-0.6,0.2-1.3-0.1-1.6,0.7c-0.1,0.1-0.4,0.2-0.6,0.2c-1-0.1-1.9,0.3-2.7,1.1
		c-0.4-0.7-0.4-1.3-0.5-1.9c0-0.4,0-0.9-0.1-1.2c-0.7-1.3-0.2-2.4,0.4-3.4C320.2,184.8,320.3,184.4,320.2,184L320.2,184z
		 M137.2,191.7c-0.2,0-0.3,0-0.3-0.2c0-0.1,0.1-0.1,0.2-0.1s0.1,0.1,0.2,0.2C137.3,191.6,137.3,191.7,137.2,191.7L137.2,191.7z
		 M141,187.2c-0.6,1.3-0.5,2.9-1,4.3c-1-0.5-2.1-0.6-2.9-1c-1.5-0.8-3.3-0.8-4.7-1.9c-1-0.8-2.1-1.4-2.1-2.9c-0.1-1-0.9-1.7-1.3-2.6
		c-0.1-0.3-0.5-0.6-0.5-1c0-0.9,0-1.9-0.7-2.6c-0.2-0.2,0-0.5,0-0.7c0-2.1,0.5-4.1,1.1-6.1c0.4-1.3,1.1-2.7,2.5-3.5
		c0.9-0.6,1.8-1.4,2.5-2.3c0.9-1.1,2.2-1.4,3.5-1.7c0.4-0.1,0.8,0.1,1.3,0.2c-0.6,1-0.4,1.8,0,2.7c1.1-0.1,0.9-1.1,1.3-1.6
		c-0.1,1.2,0.1,2.4-0.5,3.5c-0.3,0.6-0.4,1.4-0.3,2.1c0.2,1.1-0.6,2.2-0.1,3.4v0.1c-0.3,0.3-0.9,0.5-0.5,1.1
		c0.3,0.4,0.7,0.6,1.2,0.8c0.7,0.2,0.8,0.8,0.6,1.4c-0.5,1.8-0.1,3.7-0.4,5.6c-0.1,0.8,0.6,1.3,0.8,2
		C140.8,186.6,141.1,186.9,141,187.2L141,187.2z M151.7,151.8c0.5-1.3,0.4-2.8,0.5-4.2c0-0.4,0-0.8,0.2-1.1c1.1-1.4,1.4-3,1.5-4.6
		c0.1-0.6,0.3-1.1,0.6-1.6c1.2-1.6,1.4-3.4,1.3-5.4c0-0.4,0.1-0.8,0.3-1c0.7-0.8,0.8-1.9,1.3-2.8c0.3-0.4,0.2-1.1,0.2-1.7
		c0-0.5,0-0.9,0.5-1.2c0.2-0.1,0.4-0.3,0.4-0.5c-0.1-1.1,0.8-1.7,1.3-2.5s1-1.5,0.8-2.5c-0.1-0.7,0.3-1.5,0.8-1.9
		c0.8-0.6,1.2-1.4,1.4-2.2c0.6-2.2,1.7-4.1,2.6-6.2c0.3-0.8,0.8-1.4,1.5-1.9c1-0.7,1.7-1.7,2.2-2.8c0.4-1,1-1.7,1.7-2.5
		c0.8-0.8,1.4-1.8,1.9-2.8c0.5-0.9,1.2-1.5,1.8-2.3c1.1-1.2,2.4-2.1,3.2-3.6c0.2-0.4,0.6-0.6,1-0.7c0.9-0.3,1.6-0.8,2.2-1.4
		c1.2-1,2.7-1.5,4-2.5c1.4-1.1,3.2-1.7,4.5-3c0.8-0.8,2.2-1.2,3.1-2c2.4-2,5.1-3.2,8-4.4c1.6-0.7,3.2-1.2,4.8-1.6
		c2.8-0.8,5.8-1,8.4-2.5c0.6-0.3,1.6-0.2,2.3-0.3c0.2,0,0.4,0,0.6-0.1c0.9-0.6,1.9-0.1,2.7-0.5c0.9-0.4,1.9-0.3,2.9-0.7
		c0.5-0.2,1.2,0.1,1.8,0.1c2.7,0,5.4-0.2,8-0.1c2.4,0.1,4.9-0.3,7.2,0.4c1.8,0.6,3.7,0.7,5.5,1c1.3,0.2,2.4,0.7,3.6,1.1
		c1.1,0.3,2.2,0.5,3.3,0.7c1.6,0.3,3,0.9,4.6,1.2c1.9,0.3,3.6,1.6,5.4,2.3c0.4,0.2,0.9,0.4,1.3,0.6c2,0.9,3.7,2.3,5.4,3.6
		c0.2,0.1,0.3,0.4,0.5,0.4c1.3,0.2,2.2,1.3,3.1,2c1,0.8,2.2,1,3.1,1.8c1,0.9,2.4,1.3,3.5,2.2c0.7,0.6,1.5,1.3,2.5,1.5
		c0.5,0.1,0.8,0.4,1.1,0.8c0.7,1.3,1.8,2.1,2.8,3.1c1.5,1.4,2.5,3.1,3.5,4.9c0.1,0.1,0.1,0.3,0.2,0.4c1.4,0.9,1.9,2.4,2.7,3.8
		c0.2,0.3,0.3,0.6,0.6,0.7c2.1,1.2,2.8,3.4,3.7,5.4c0.5,1,1.1,2.1,1.3,3.4c0.1,0.8,0.5,1.7,1.3,2.4s1.3,1.6,1.1,2.7
		c-0.2,1.1,0.8,1.7,1.3,2.6c0.2,0.4,0.8,0.7,0.6,1.3c0,0.1,0,0.4,0.1,0.4c1.1,0.7,0.8,1.9,1.1,2.9c0.3,1.1,0.6,2.2,1.3,3.1
		c0.3,0.5,0.4,0.9,0.4,1.5c0,1.8,0,3.5,1.3,5c0.4,0.5,0.6,1.2,0.7,1.9c0.2,1.6,0.5,3.1,1.5,4.4c0.3,0.4,0.3,0.8,0.3,1.2
		c0,1.4,0.1,2.7,0.4,4c0.1,0.4,0.1,0.9-0.2,1c-1.4,0.4-2.7,1.5-4.3,1.2c-0.2,0-0.3,0-0.5-0.1c-0.5-0.1-0.9-0.4-0.7-1
		c0-0.1,0-0.2,0.1-0.3c0.5-2-0.3-3.7-1.1-5.4c-0.5-1-1.5-1.3-2.5-1.2c-1.5,0.2-3,0.1-4.5-0.1c-2.3-0.2-4.7,0-7-0.1
		c-2.9-0.2-5.8,0.2-8.7-0.4c-1-0.2-2,0-3,0.1c-2.3,0.1-4.7-0.4-7-0.4c-1.8,0-3.6-0.4-5.4-0.2c-1.1,0.1-2.2-0.1-3.3-0.4
		c-1.3-0.3-2.7-0.3-4-0.3c-1.2,0-2.4,0-3.6-0.6c-1.2-0.6-2.6-0.4-3.8-0.4c-0.5,0-0.9-0.1-1.3-0.2c-0.3-0.1-0.6-0.3-0.9-0.1
		c-0.7,0.4-1.4,0.4-2.1,0c-0.2-0.1-0.4,0-0.6,0c-1.6,0.5-2.9,1.5-3.8,2.9c-0.1,0.2-0.1,0.4,0.1,0.5c0.6,0.4,0.4,1,0.1,1.4
		c-0.8,1.1-0.4,2.1,0,3.1c0.9,1.9,1.9,3.7,3,5.4c0.5,0.7,0.4,0.9-0.4,1c-1.1,0.1-2.2,0.5-3.4,0.2c-0.9-0.2-1.9-0.3-2.9,0.1
		c-0.9,0.3-1.8,0.1-2.4-0.5c-0.8-0.6-1.7-0.8-2.6-0.5c-1.3,0.5-2.5,0.1-3.8-0.1c-0.7-0.1-1.1,0-1.7,0.4c-0.9,0.7-2,0.8-3.2,0.6
		c-1.1-0.2-2.3-0.2-3.4,0.1c-0.6,0.2-1,0-1.5-0.5c1.3-1.7,2.2-3.6,3-5.5c0.5-1.1,1.1-2.3,0.2-3.5c-0.5-0.7-0.1-1.2,0.3-1.5l-0.9-1.2
		c-1.1-1.4-2.4-2-4.3-1.8c-1.8,0.1-3.6,0.1-5.4,0.2c-0.8,0.1-1.6,0.2-2.3,0.5c-1.2,0.5-2.4,0.7-3.7,0.5c-1.1-0.2-2.3,0.2-3.4,0.3
		c-1.6,0.1-3.3,0.6-4.9,0.3h-0.9c-4.1,0.4-8.1,0.8-12.2,0.5c-0.5,0-1,0.1-1.6,0.1c-2,0.3-4.1,0-6.1,0.2c-1.6,0.1-3.2-0.4-4.7,0.3
		h-0.2c-2.3-0.7-4.5,0.4-6.8,0.3c-0.7,0-1.3-0.1-2-0.1c-1-0.1-1.7,0.3-2.5,1.2c-1.3,1.7-1.3,3.5-1.1,5.3c0.1,0.7-0.1,1-0.7,0.9
		c-0.6-0.1-1.1,0-1.7,0.1c-1.6,0.3-2.9-0.8-4.3-1.2C151.6,152.7,151.5,152.3,151.7,151.8L151.7,151.8z M297.8,175.6
		c0.1,0.6,0.1,1.3-0.2,1.8c-0.9,2.1-1.1,4.3-1.7,6.4c-0.5,1.9-1.1,3.7-2.1,5.4c-0.7,1.1-1.1,2.3-1.8,3.4c-0.5,0.8-1,1.5-1.8,2.1
		c-1.5,1-3,2-4.5,2.8c-1.4,0.8-3.1,1-4.7,1.5c-0.6,0.2-1.3,0.4-1.9,0.6c-0.6,0.2-1.2,0.5-2,0.4c-0.4-0.1-1,0-1.4,0.2
		c-0.7,0.4-1.3,0.5-2,0.2c-0.4-0.2-0.9,0.2-1.3,0.3c-0.8,0.3-1.6,0.5-2.5-0.2c-0.5-0.5-1.3-0.5-1.9-0.4c-2.1,0.1-4.2-0.5-5.8-1.5
		c-1.7-1-3.5-1.8-5-2.9c-1.9-1.3-3.6-2.8-4.4-5.2c-0.5-1.6-1.3-3.1-2.1-4.6c-1.3-2.4-2.3-4.9-2.8-7.7c0-0.2-0.2-0.5-0.3-0.7
		c-0.7-2.1-1-4.2-0.9-6.4c0.1-2,1.8-3.6,3.5-3.9c1.6-0.2,3.1-0.5,4.6-0.9c0.8-0.2,1.6-0.3,2.3-0.2c2.6,0.2,5-0.4,7.5-0.8
		c0.7-0.1,1.4-0.2,2-0.1c2.4,0.4,4.7-0.1,7-0.2c4.9-0.1,9.9-0.2,14.8-0.1c1.7,0.1,3.3,0.2,5,0.4c1,0.1,1.9,0.4,2.5,1.3
		c0.4,0.8,2.1,3.1,2,3.6C297.5,172.1,297.7,173.9,297.8,175.6L297.8,175.6z M237.7,182.7c-0.1,0.1-0.2,0.2-0.4,0.1
		c-0.1-0.1-0.3-0.2-0.1-0.3c0.1-0.1,0.3-0.1,0.4-0.1C237.7,182.5,237.7,182.6,237.7,182.7z M222.9,182.7c-0.1,0.1-0.2,0.2-0.4,0.2
		s-0.3-0.2-0.2-0.3s0.3-0.1,0.4-0.1C222.8,182.5,222.8,182.6,222.9,182.7L222.9,182.7z M162.4,172.1c0.1-0.5-0.1-0.9-0.2-1.3
		c-0.3-0.9,1.2-2.6,1.6-3.3c0.4-0.7,0.6-1.6,1.6-1.8c1.7-0.3,3.5-0.7,5.3-0.6c1.4,0.1,2.8-0.2,4-0.1c5.7-0.2,11.1,0.1,16.6,0.4
		c0.7,0,1.4-0.2,2.2-0.1c2.1,0.1,4.2,0.5,6.3,0.7c0.5,0.1,0.9,0.2,1.4,0.2c2.3-0.2,4.6,0.2,6.8,0.7c0.9,0.2,1.9,0.1,2.7,0.5
		c2,0.9,2.9,3,2.7,5.1c-0.4,4.1-1.5,8-3,11.8c-0.8,1.9-1.7,3.6-2.6,5.4c-0.5,1.1-0.9,2.3-1.7,3.3c-1.5,1.8-3.4,3-5.4,4
		c-0.8,0.4-1.8,0.6-2.3,1.5c-0.2,0.4-0.8,0.3-1.1,0.4c-1.8,0.7-3.5,1.4-5.4,1.2c-0.5,0-1.1,0.1-1.6,0.5c-0.8,0.6-1.8,0.6-2.6,0.1
		c-0.6-0.3-1-0.5-1.5,0.1c-0.3,0.3-0.6,0.2-0.8-0.1c-0.5-0.8-1.4-0.7-2.1-0.7c-0.7,0.1-1.2-0.1-1.8-0.3c-2.2-0.6-4.4-1.2-6.5-2.1
		c-1.7-0.7-3.2-1.8-4.8-2.8c-1.8-1.1-2.3-3.1-3.2-4.7c-0.3-0.6-0.7-1.3-1-1.9c-1.3-2.1-1.4-4.5-2.1-6.8c-0.5-1.5-0.5-3.1-1.4-4.5
		c-0.1-0.2-0.1-0.4-0.1-0.6C162.4,175.1,162.1,173.5,162.4,172.1L162.4,172.1z M154.9,211.7c-1.8-4-3.3-8.1-4.8-12.2
		c-0.5-1.4-0.6-2.9-1.2-4.4c-0.3-0.8,0.1-1.8,0-2.7c-0.1-1.3-0.1-2.6-0.5-3.9c-0.2-0.7-0.2-1.6-0.1-2.3c0.7-3.2,0.6-6.5,0.7-9.8
		c0-1.4,0.2-2.8,0.3-4.2s0.1-2.8,0.2-4.2v-1.4c0-0.7,0.1-1.2,1-1.2c1,0,1.3,0.1,1.4,1c0.2,2.1,1,4.2,0.6,6.4c-0.2,0.8,0.3,1.7,0,2.6
		c-0.1,0.3,0,0.6,0.4,0.8c0.3,0.2,0.4,0.6,0.3,0.8c-0.4,0.6-0.1,1.1,0.1,1.6c0.2,0.8-0.5,1.7,0.5,2.3c-0.1,0.9,0.1,1.8,0.4,2.6
		c0.4,1.1,0.6,2.3,0.8,3.5s1.1,2.1,1.6,3.2c0.1,0.3,0.5,0.6,0.5,1c0,1.3,0.7,2.3,1.2,3.5c0.2,0.5,0.7,0.9,0.9,1.3
		c0.4,0.7,1,1.2,1,2.1c0,0.2,0.1,0.4,0.3,0.5c1.3,1,2,2.6,3.3,3.6c0.7,0.5,1.1,1.4,1.8,2.1c1.3,1.4,3.4,1.9,4.2,3.8
		c0.1,0.3,0.4,0.4,0.6,0.4c1,0,1.8,0.6,2.7,0.7c0.7,0,1.1,0.4,1.5,1c0.2,0.4,0.6,0.6,1,0.1c0.2-0.4,0.5-0.4,0.9-0.3
		c1.6,0.3,3.2,0.9,4.9,0.9c0.7,0,1.4,0.6,2.3,0c0.5-0.3,1.3,0.1,1.9,0.4c0.4,0.2,0.8,0.4,1.2,0.2c1-0.3,1.9-0.3,2.8,0.1
		c0.7,0.2,1.3,0,1.9-0.3c1.1-0.6,2.2-1.2,3.5-0.5c0.3,0.1,0.6,0.1,0.9,0.1c0.8-0.2,1.6-0.4,2.4-0.4c0.4,0,1-0.1,1.1-0.7
		c0.1-0.4,0.4-0.5,0.7-0.2c0.5,0.6,0.9,0.2,1.3-0.2s0.6-1,1.3-1.1c0.3,0,0.4-0.3,0.4-0.6c0-1,0.6-1.4,1.4-1.6
		c0.7-0.2,1.2-0.7,2.1-0.4c1.1,0.5,1.8-0.5,2.4-1c1.1-1,2.2-1.9,3.3-2.8c0.7-0.5,1.2-1.3,1.7-2c1.1-2.1,2.4-4.1,3.8-6
		c0.3-0.5,0.8-0.9,0.8-1.5c0-0.2,0.1-0.5,0.3-0.5c0.9,0,0.8-0.8,1.1-1.3c0.6-0.9,0.7-2,1.7-2.6c0.4-0.2,0.2-0.8,0.2-1.2
		c0-0.9,0-1.6,0.9-2.1c0.4-0.2,0.8-0.8,0.8-1.3c0.1-1.4,1-2.6,1.2-4c0.1-1,0.7-1.9,0.7-3c0-0.1,0.1-0.4,0.2-0.4c1-0.1,2-1,3.1-0.5
		c0.9,0.4,1.8,0.2,2.5,0.1c0.6-0.1,1.1-0.1,1.7,0c1.4,0.2,2.4,0.5,2,2.2c0.9,0.8,0.4,2.2,1.1,3.1c0.2,0.3,0.2,0.7,0.2,1.1
		c0,1.2,0.6,2.2,1.6,2.9c0.6,0.5,0.7,1.1,0.6,1.8c-0.1,0.9,0.1,1.5,0.8,2c0.8,0.5,0.6,1.7,1.3,2.4c0.1,0.1,0,0.4,0.1,0.4
		c1.5,1,2.1,2.8,3.1,4.2c0.8,1,1.5,2.3,2.1,3.6c0.7,1.5,1.6,2.8,3.2,3.5c0.6,0.3,1.1,0.8,1.5,1.3c0.5,0.8,1.4,1,2.1,1.6
		c0.2,0.2,0.5,0.3,0.7,0.1c1.1-0.7,2,0.3,2.9,0.4c0.4,0,0.7,0.4,0.5,0.8c-0.3,0.5-0.6,0-0.9-0.2c-0.1-0.1-0.3-0.1-0.5,0.1
		c0.1,0.7,0.6,1.2,1.3,1.1c0.9,0,1.4,0.3,1.9,1.1c0.6,0.9,0.7,0.9,1.7,0.1c1.6,1.4,3.4,1.8,5.5,1.2c0.9-0.2,1.9,0.1,2.6,0.6
		c1,0.7,1.8,0.5,2.8,0.3c0.3-0.1,0.6-0.4,0.9-0.3c1.2,0.7,2.4,0.2,3.6-0.2c0.2-0.1,0.6-0.3,0.7-0.2c0.8,0.6,1.6,0.1,2.4,0.1
		c1.7,0,3.1-0.6,4.7-0.9c0.4-0.1,0.8-0.2,1.1,0.3c0.2,0.3,0.6,0.4,0.8,0.1c0.8-1.3,2.2-1.3,3.4-1.6c1.1-0.2,1.7-0.8,2.3-1.6
		c0.5-0.6,1-1,1.6-1.4c1.2-0.9,2.6-1.7,3.2-3.2c0.2-0.4,0.6-0.6,0.9-0.8c1.1-1,2-2.2,2.9-3.4c0.5-0.6,0.7-1.6,1.2-2.3
		c0.5-0.6,0.8-1.1,1.1-1.8c0.4-0.9,0.8-1.8,1-2.9c0.2-1.1,1-2.2,1.5-3.2c0.2-0.3,0.4-0.6,0.4-1c0-2.1,1.4-3.9,1.2-6
		c1.1-0.9-0.2-2.4,0.9-3.3c0.1-0.1,0-0.4-0.2-0.5c-0.2-0.2-0.3-0.5-0.2-0.7c1.1-1.7,0.3-3.6,0.6-5.3c0.2-1.1-0.5-2.3,0.6-3.3
		c0.3-0.3,0-0.8,0-1.2c0.1-1.1,0.4-1.5,1.3-1.5c1,0,1.2,0.1,1.2,1.1c0.1,0.8,0.1,1.7,0,2.5c-0.1,0.7,0.7,1.5-0.1,2.2
		c0.5,1.1,0.1,2.3,0.2,3.4c0.2,1.6,0.1,3.2,0.2,4.8c0,2.1,0.2,4.2,0.5,6.2c0.2,1.1,0.1,2.2-0.1,3.2c-0.3,1.9-0.6,3.8-0.2,5.8
		c0,0.2,0.1,0.4,0,0.6c-1,2.8-1.6,5.7-2.8,8.4c-1.2,2.8-2.1,5.6-3.5,8.3c-1.2,2.5-2.2,5.2-3.9,7.4c-0.5,0.6-0.7,1.4-1,2
		c-0.4,0.9-0.7,2-1.8,2.5c-0.5,0.3-1.4,0.8-1.1,1.8c0.1,0.2,0.1,0.3-0.1,0.4c-1.2,1-1.8,2.3-2.8,3.4c-0.1,0.1-0.2,0.3-0.3,0.4
		c-2.2,1.4-3.7,3.5-5.2,5.5c-0.5,0.7-1.6,0.9-1.7,1.9c0,0.1-0.3,0.2-0.4,0.2c-1.8-0.1-2.6,1.4-3.6,2.3c-1.2,1-2.6,1.2-4,1.6
		c-0.7,0.2-1.5,0.2-2.3,0.4c-0.6,0.2-1.1,0.3-1.7,0.2c-0.4-0.1-0.8,0-1.2,0.1c-1.7,0.6-3.3,0.7-5.1,0c-1.5-0.6-3.1-0.8-4.6-1.3
		c-0.4-0.1-0.8-0.2-1.1-0.5c-1.8-1.5-3.6-3-5-4.9c-0.4-0.6-0.9-1.1-1.6-1.4c-1.6-0.7-3.1-1.5-4.3-2.7c-0.3-0.3-0.7-0.5-1-0.7
		c-1.3-0.4-2.2-1.1-3-2.2c-0.6-0.8-1.9-1.1-2.8-1.6c0.3-0.6,1-0.6,1.5-0.9c0.8-0.5,1.8-0.8,2.2-1.9c0.2-0.4,0.7-0.5,1.2-0.7
		c1.8-0.5,3.1-1.9,4.3-3.2c0.8-0.8,0.7-1.8,0.2-2.9c-0.6-1.4-1.7-2.3-2.5-3.5c-0.3-0.5-0.9-0.3-1.4-0.5c-1.5-0.4-2.8-0.1-4,0.8
		c-1.3,1-2.9,1.5-4.4,2.3c-2.3,1.2-4.8,1.6-7.2,2.4c-1.5,0.5-3.2,0.4-4.8,0.3c-1.7,0-3.4,0.2-4.9-0.3c-1.9-0.6-3.8-0.8-5.7-1.6
		c-1.8-0.8-3.5-1.7-5.4-2.4c-0.7-0.3-1.5-0.9-2.3-1.2c-2.7-1-3.4-0.7-4.8,1.3c-0.6,0.9-1.1,1.7-1.4,2.7c-0.4,1.4,0,2.6,1,3.6
		s2,2,3.5,2.3c0.3,0.1,0.8,0.3,0.9,0.5c0.6,1.5,2,1.7,3.1,2.3c0.2,0.1,0.3,0.2,0.7,0.4c-0.9,0.5-1.6,0.9-2.3,1.2
		c-0.6,0.3-1.1,0.6-1.3,1.2c-0.2,0.6-0.7,0.9-1.3,1c-0.9,0.2-1.6,0.7-2.3,1.3c-1.2,1.1-2.6,1.8-4.1,2.5c-0.6,0.3-1.1,0.6-1.4,1.1
		c-1.4,2.1-3.3,3.7-5.3,5.2c-1.3,0.9-3,1.3-4.6,1.6c-0.3,0.1-0.7,0-0.9,0.1c-1.8,1-3.5,0.5-5.4,0.1c-1.5-0.3-3-0.6-4.6-0.6
		c-1.2,0-3.4-0.9-4.2-1.7s-2-1.1-2.6-2.2l-0.1-0.1c-1.3,0.3-1.5-0.8-2.3-1.3c-0.8-0.6-1.3-1.5-2-2.2c-1.3-1.4-2.3-3-4-4.1
		c-1-0.6-1.6-1.7-2.3-2.7c-0.5-0.7-1.3-1.2-1.2-2.2c0-0.2-0.3-0.5-0.5-0.6c-1-0.6-1.4-1.6-2.1-2.5c-0.3-0.3-0.1-0.7-0.2-1
		c-0.4-0.9-1-1.7-1.6-2.5C157,216.4,155.9,214.1,154.9,211.7L154.9,211.7z M253.8,256c-0.1,1.6-1,3.1-1.4,4.6
		c-0.3,1.2-1.2,2.4-1.6,3.8c-0.4,1.3-0.4,2.7-0.9,4s-1.3,2.4-1.9,3.5c-0.7,1.2-1.2,2.4-2.2,3.3s-1.8,2.2-3,2.7s-2.7,0.3-4,0.5
		s-2.7-0.2-4-0.1c-1.4,0.1-2.6,1-3.9,1.2c-1.6,0.2-3.3,0.5-4.9,0.4c-1.6-0.1-2.9-1.5-4.4-2.2c-0.8-0.4-2.7,0.1-4.1-0.5
		c-1.4-0.5-3-1.2-3.7-1.8c-1.2-1.1-2.1-2.3-2.8-3.4c-0.8-1.2-0.8-2.8-1.4-4.2c-0.5-1.3-1.5-2.4-2.2-3.8c-0.5-1.1-0.4-2.4-0.6-3.5
		c-0.2-1.2-1.5-2.4-1.4-3.6c0.1-1.2,0.4-2.6,0.8-3.7s2.5-1.3,3.3-2.2c0.9-1,1.6-1.5,2.7-2.1c1.1-0.6,2-1.1,3.3-1.4
		c1.2-0.3,2.3-1.2,3.5-1.3c1.3-0.1,2.5-0.2,3.7-0.3c1.1,0,2.4-0.6,3.9-0.7c1.2-0.1,2.6,1,4,1c1.3,0,2.6-0.8,3.9-0.8
		c1.3,0,2.6,0.5,3.9,0.6c1.3,0.1,2.6,0.3,3.9,0.5c1.3,0.2,2.5,0.8,3.7,1.2c1.3,0.4,2.3,1,3.3,1.7c1.1,0.7,2.2,1.1,2.9,2.2
		C252.8,253,253.8,254.4,253.8,256L253.8,256z M300.6,286.4l-0.5,1.8L300,290l0.5,2l-0.5,1.8l-0.5,1.8l-0.6,1.8l-0.9,1.7l0.1,2
		l-0.6,1.8l-1.3,1.5l-0.2,1.9l-1.2,1.5l-0.3,1.9l-1,1.6l-0.2,1.9l-0.8,1.7l-0.9,1.6l-0.9,1.6l-0.9,1.6l-0.9,1.6l-1.3,1.4l-0.6,1.8
		l-0.8,1.7l-1.3,1.3l-0.8,1.7l-1.4,1.2l-0.6,1.8l-1.4,1.3l-1.3,1.3l-1.3,1.3l-1.4,1.2l-1.3,1.3l-0.9,1.8l-1.4,1.2l-1.5,1.1l-1.9,0.6
		l-1.1,1.6l-1.6,1l-1.6,1l-1.9,0.3l-1.5,1.1l-1.8,0.5l-1.6,0.9l-1.7,0.6l-1.7,0.6l-1.7,0.6l-1.7,0.6l-1.7,0.7l-1.8,0.6l-1.7,0.7
		l-1.8,0.3l-1.8,0.3l-1.8,0.4l-1.7,0.7l-1.8,0.2l-1.8,0.1l-1.9-0.3l-1.8,0.8h-1.8l-1.8,0.1l-1.8-0.1l-1.8-0.2l-1.8-0.8l-1.9,0.7
		l-1.8-0.7l-1.8-0.5l-1.9,0.5l-1.8-0.3l-1.6-1.1l-2,0.3l-1.7-0.9l-1.7-0.8l-2,0.3l-1.6-1l-1.6-0.9l-2-0.1l-1.3-1.5l-1.8-0.5
		l-1.7-0.6l-1.6-0.9l-1.3-1.4l-1.8-0.6l-1.5-1.1l-1.3-1.3l-1.5-1.1l-1.1-1.5L183,340l-1.2-1.4l-1.2-1.4l-1.2-1.4l-1.5-1.1l-0.9-1.6
		l-0.8-1.7l-1.6-1.1l-0.7-1.8l-1.1-1.5l-1-1.6l-1.4-1.3l-0.7-1.8l-0.9-1.6l-1.5-1.3l-0.6-1.8l-1.3-1.4l-0.7-1.7l-1-1.6l-0.2-2
		l-1.3-1.4l-1-1.6l-0.2-2l-0.6-1.8l-0.9-1.7l-0.8-1.7l-0.3-1.9v-1.9l-0.7-1.8l-0.3-1.9l0.2-1.9l-0.2-1.9l0.7-1.8l-0.6-1.9l1.1-1.7
		l-0.3-2l0.5-0.7c0.1,0.1,0.2,0.2,0.3,0.2c0.3,0.2,0.5,0.5,0.7,0.8c1,1.5,2.1,3.1,3.3,4.5c0.6,0.8,1.4,1.6,1.6,2.6
		c0.2,1.1,1.8,1,1.5,2.3c-0.1,0.2,0.3,0.4,0.6,0.4c0.4,0,0.8,0.1,1.2,0.5c-0.6,0.3-0.7,0.7-0.3,1.3c0.3,0.5,0.9,0.6,1.2,1.2
		c0.8,1.4,2.1,2.4,2.8,4c0.1,0.3,0.4,0.5,0.7,0.6c1.1,0.6,1.8,1.7,2.8,2.5c1,0.9,1.7,2.1,2.7,3c2.4,2.1,5.1,3.7,7.6,5.7
		c0.4,0.3,0.8,0.6,1.3,0.9c1.9,0.9,3.6,2.2,5.5,3.1c1,0.5,2.2,1,2.9,2c0.1,0.2,0.5,0.3,0.7,0.3c0.6,0,1,0.4,1.4,0.8
		c1.1,1,2.3,1.8,3.8,1.9c0.6,0,1.2,0.3,1.8,0.7c0.9,0.7,1.7,1.4,2.8,1.8c1.5,0.5,2.9,1,4.5,1c0.4,0,0.8,0.2,1.2,0.4
		c0.9,0.5,1.8,0.9,2.7,1c1.7,0.2,3.5,0.4,5.2,0.7c3.2,0.5,6.4,0.6,9.6,0.6c3.9-0.1,7.9,0.2,11.8-0.4c1.5-0.2,3.1-0.5,4.6-0.6
		c0.9-0.1,1.9-0.2,2.8-0.6c1.2-0.5,2.4-1,3.8-1.1c2-0.2,4-0.8,5.7-2.2c0.7-0.6,1.5-1.3,2.6-1.2c1,0.1,1.8-0.4,2.6-1
		c1-0.7,1.7-1.8,3.1-1.9l0.1-0.1c1.8-1.6,4.1-2.4,6.1-3.7c1.5-1,3.2-1.7,4.6-2.9c0.5-0.4,0.9-0.8,1.4-1.1c2.1-1.2,4.2-2.7,5.7-4.5
		c2.3-2.7,5.3-4.7,7-7.8c0.1-0.2,0.3-0.3,0.4-0.4c0.7-0.8,1.3-1.7,2-2.5c0.6-0.6,0.3-1.8,1.4-2c0.1-1.1,1.2-1.7,1.6-2.6
		c0.5-1,1.1-2,1.9-2.8c0.8-1,1.7-1.9,2.3-3.1c0.1-0.3,0.3-0.6,0.5-0.9v0.3l0.4,1.9L300.6,286.4L300.6,286.4z"/>
</g>
</svg>
